<?xml version="1.0" encoding="utf-8"?>
<!-- Generator: Adobe Illustrator 23.0.0, SVG Export Plug-In . SVG Version: 6.00 Build 0)  -->
<svg version="1.1" id="Capa_1" xmlns="http://www.w3.org/2000/svg" xmlns:xlink="http://www.w3.org/1999/xlink" x="0px" y="0px"
	 viewBox="0 0 506.724 184.11" enable-background="new 0 0 506.724 184.11" xml:space="preserve">
<path d="M77.006,5.579c-2.035,3.884-4.182,7.713-6.083,11.661c-5.248,10.896-9.376,22.175-11.013,34.233
	c-1.489,10.968-1.013,21.756,4.239,31.774c7.283,13.894,19.257,20.982,34.526,22.957c15.825,2.048,31.241-0.4,46.484-4.439
	c44.686-11.843,89.366-23.712,134.044-35.585c47.602-12.651,95.199-25.321,142.799-37.979c25.356-6.743,50.714-13.48,76.071-20.217
	c0.37-0.098,0.75-0.158,1.248,0.014c-0.398,0.211-0.783,0.452-1.195,0.629C438.219,34.286,378.311,59.944,318.4,85.593
	c-55.317,23.682-110.641,47.347-165.956,71.035c-15.661,6.706-31.343,13.35-47.829,17.839c-14.092,3.837-28.354,6.555-43.046,6.056
	c-12.818-0.435-24.989-3.263-35.366-11.211c-14.335-10.981-20.435-25.803-19.584-43.689c0.746-15.686,5.762-30.15,12.565-44.093
	c7.846-16.08,18.172-30.542,29.611-44.195c8.88-10.599,18.191-20.837,27.305-31.239c0.217-0.247,0.372-0.549,0.556-0.825
	C76.773,5.373,76.889,5.476,77.006,5.579z"/>
</svg>
