<?xml version="1.0" encoding="utf-8"?>
<!-- Generator: Adobe Illustrator 23.0.0, SVG Export Plug-In . SVG Version: 6.00 Build 0)  -->
<svg version="1.1" id="Capa_1" xmlns="http://www.w3.org/2000/svg" xmlns:xlink="http://www.w3.org/1999/xlink" x="0px" y="0px"
	 viewBox="0 0 85 85" style="enable-background:new 0 0 85 85;" xml:space="preserve">
<style type="text/css">
	.st0{fill:#FFFFFF;}
</style>
<g>
	<path class="st0" d="M9.3,42.5c0-11.5,0-23,0-34.5c0-3.9,2.2-6.8,5.9-7.7c2.3-0.6,4.5-0.2,6.6,1.1c3.8,2.3,7.6,4.5,11.4,6.8
		c12.2,7.2,24.3,14.4,36.5,21.6c3.3,1.9,6.5,3.9,9.8,5.8c5.2,3,5.1,8.9,2.6,11.9c-1.2,1.4-2.8,2.3-4.3,3.2
		c-10,5.9-19.9,11.8-29.9,17.6c-8.7,5.1-17.5,10.3-26.2,15.4c-4.9,2.9-10.6,0.5-12.1-4.3c-0.3-1-0.3-2.1-0.3-3.1
		C9.3,65,9.3,53.8,9.3,42.5z"/>
</g>
</svg>
